HIERARCHY
ROOT Hips
{
	OFFSET 0.000000 0.000000 0.000000
	CHANNELS 6 Xposition Yposition Zposition Xrotation Yrotation Zrotation
	JOINT LeftUpLeg_virtual
	{
		OFFSET 0.000000 0.000000 0.000000
		CHANNELS 3 Xrotation Yrotation Zrotation
		JOINT LeftUpLeg
		{
			OFFSET 11.394100 -6.187798 -0.413800
			CHANNELS 3 Xrotation Yrotation Zrotation
			JOINT LeftLeg
			{
				OFFSET 0.430247 -32.302673 3.732800
				CHANNELS 3 Xrotation Yrotation Zrotation
				JOINT LeftFoot
				{
					OFFSET -0.430247 -48.264931 -6.423300
					CHANNELS 3 Xrotation Yrotation Zrotation
					JOINT LeftToeBase
					{
						OFFSET 4.230900 -16.068199 23.438400
						CHANNELS 3 Xrotation Yrotation Zrotation
						JOINT LeftToe_End
						{
							OFFSET 4.510700 0.695400 19.974600
							CHANNELS 3 Xrotation Yrotation Zrotation
							End Site
							{
								OFFSET 0 0 0
							}
						}
					}
				}
			}
		}
	}
	JOINT RightUpLeg_virtual
	{
		OFFSET 0.000000 0.000000 0.000000
		CHANNELS 3 Xrotation Yrotation Zrotation
		JOINT RightUpLeg
		{
			OFFSET -11.333700 -6.187798 -0.413800
			CHANNELS 3 Xrotation Yrotation Zrotation
			JOINT RightLeg
			{
				OFFSET -0.430392 -32.302628 3.733000
				CHANNELS 3 Xrotation Yrotation Zrotation
				JOINT RightFoot
				{
					OFFSET 0.430392 -48.264973 -6.423500
					CHANNELS 3 Xrotation Yrotation Zrotation
					JOINT RightToeBase
					{
						OFFSET -4.230900 -16.068199 23.438400
						CHANNELS 3 Xrotation Yrotation Zrotation
						JOINT RightToe_End
						{
							OFFSET -4.510700 0.695400 19.974600
							CHANNELS 3 Xrotation Yrotation Zrotation
							End Site
							{
								OFFSET 0 0 0
							}
						}
					}
				}
			}
		}
	}
	JOINT Spine_virtual
	{
		OFFSET 0.000000 0.000000 0.000000
		CHANNELS 3 Xrotation Yrotation Zrotation
		JOINT Spine
		{
			OFFSET -0.002400 12.777504 0.315300
			CHANNELS 3 Xrotation Yrotation Zrotation
			JOINT Spine1
			{
				OFFSET -0.002067 5.816869 0.032633
				CHANNELS 3 Xrotation Yrotation Zrotation
				JOINT Spine1_split
				{
					OFFSET -0.002067 5.816869 0.032633
					CHANNELS 3 Xrotation Yrotation Zrotation
					JOINT Spine2
					{
						OFFSET -0.002067 5.816869 0.032633
						CHANNELS 3 Xrotation Yrotation Zrotation
						JOINT Neck_virtual
						{
							OFFSET 0.000000 0.000000 0.000000
							CHANNELS 3 Xrotation Yrotation Zrotation
							JOINT Neck
							{
								OFFSET -0.003700 21.199493 -0.826900
								CHANNELS 3 Xrotation Yrotation Zrotation
								JOINT Head
								{
									OFFSET 0.000000 20.442200 4.834800
									CHANNELS 3 Xrotation Yrotation Zrotation
									JOINT HeadTop_End
									{
										OFFSET 0.000000 34.668396 4.968400
										CHANNELS 3 Xrotation Yrotation Zrotation
										End Site
										{
											OFFSET 0 0 0
										}
									}
								}
							}
						}
						JOINT LeftShoulder_virtual
						{
							OFFSET 0.000000 0.000000 0.000000
							CHANNELS 3 Xrotation Yrotation Zrotation
							JOINT LeftShoulder
							{
								OFFSET 3.288150 8.794197 -1.372250
								CHANNELS 3 Xrotation Yrotation Zrotation
								JOINT LeftShoulder_split
								{
									OFFSET 3.288150 8.794197 -1.372250
									CHANNELS 3 Xrotation Yrotation Zrotation
									JOINT LeftArm
									{
										OFFSET 11.953299 -2.279007 -0.146200
										CHANNELS 3 Xrotation Yrotation Zrotation
										JOINT LeftForeArm
										{
											OFFSET 18.448900 0.000000 0.000000
											CHANNELS 3 Xrotation Yrotation Zrotation
											JOINT LeftHand
											{
												OFFSET 29.527798 0.000000 0.000000
												CHANNELS 3 Xrotation Yrotation Zrotation
												End Site
												{
													OFFSET 0 0 0
												}
											}
										}
									}
								}
							}
						}
						JOINT RightShoulder_virtual
						{
							OFFSET 0.000000 0.000000 0.000000
							CHANNELS 3 Xrotation Yrotation Zrotation
							JOINT RightShoulder
							{
								OFFSET -3.249400 8.794197 -1.372250
								CHANNELS 3 Xrotation Yrotation Zrotation
								JOINT RightShoulder_split
								{
									OFFSET -3.249400 8.794197 -1.372250
									CHANNELS 3 Xrotation Yrotation Zrotation
									JOINT RightArm
									{
										OFFSET -11.953299 -2.279007 -0.146200
										CHANNELS 3 Xrotation Yrotation Zrotation
										JOINT RightForeArm
										{
											OFFSET -18.448900 0.000000 0.000000
											CHANNELS 3 Xrotation Yrotation Zrotation
											JOINT RightHand
											{
												OFFSET -29.527802 0.000000 0.000000
												CHANNELS 3 Xrotation Yrotation Zrotation
												End Site
												{
													OFFSET 0 0 0
												}
											}
										}
									}
								}
							}
						}
					}
				}
			}
		}
	}
}
MOTION
Frames: 9
Frame Time: 0.03333333
-2.613825 99.124802 0.669361 0.000000 0.000000 0.000000 5.244768 -17.310764 9.369546 -32.294658 -5.656294 -10.337700 15.495312 -3.413056 -5.734225 17.380033 -24.180398 11.620299 -1.493914 -0.598868 3.206457 0.000000 0.000000 0.000000 4.950355 -14.108292 9.442666 0.664635 -11.791289 -9.816471 31.385617 4.619728 -4.142034 6.471710 0.382738 6.818178 -43.784135 1.598060 -4.759774 0.000000 0.000000 0.000000 3.015710 -14.852969 7.955256 1.874062 5.323421 0.363032 5.884983 9.455585 2.212155 0.808750 -1.706081 0.793223 0.000000 0.000000 0.000000 4.947994 9.287325 2.233792 -2.157955 -0.402185 -1.948156 -7.228036 -1.149931 -11.979909 0.000000 0.000000 0.000000 4.755255 9.590998 1.949380 0.429499 0.191561 -13.317792 0.758477 2.108982 -1.974822 -19.023093 -24.447909 -69.899179 0.283784 -65.370415 -1.460217 0.000000 0.000000 0.000000 5.101058 9.608799 2.238628 1.028796 11.172002 18.217317 -1.445928 2.891479 -1.577483 -44.900940 56.540801 71.565862 -2.397590 39.220626 0.944294 0.000000 0.000000 0.000000 
-2.386235 99.110374 0.602020 0.000000 0.000000 0.000000 5.195632 -17.297101 9.202052 -32.453087 -6.251726 -10.208908 15.656949 -3.645434 -5.919768 17.562623 -24.342070 11.502127 -1.595721 -0.517934 3.115580 0.000000 0.000000 0.000000 4.975622 -14.008229 9.293240 0.733351 -11.857695 -9.886264 31.430222 4.885887 -4.178159 5.947301 0.468180 7.172218 -42.602229 1.761413 -5.103597 0.000000 0.000000 0.000000 3.185889 -15.180463 7.713065 1.880141 5.374897 0.455444 5.858437 9.430931 2.197115 0.879409 -1.722275 0.765188 0.000000 0.000000 0.000000 4.993566 9.264849 2.218641 -2.127510 -0.341379 -1.960411 -7.270610 -1.260589 -11.983911 0.000000 0.000000 0.000000 4.741820 9.557530 1.933324 0.437973 0.156088 -13.308112 0.850645 2.151884 -1.934166 -19.359152 -24.652262 -69.977631 0.392989 -65.465348 -1.376204 0.000000 0.000000 0.000000 5.074730 9.579450 2.243624 1.029697 11.019399 18.188751 -1.568119 2.869729 -1.557372 -45.061237 56.542850 71.637975 -2.363040 39.414481 0.928138 0.000000 0.000000 0.000000 
-2.150339 98.930954 0.564968 0.000000 0.000000 0.000000 5.018538 -17.569181 8.917564 -32.844484 -6.870020 -9.986094 16.314180 -3.887196 -6.143685 17.605134 -24.501815 11.240657 -1.685625 -0.300583 2.957049 0.000000 0.000000 0.000000 5.074822 -14.192219 8.955350 1.156250 -11.767946 -9.618229 30.706147 5.077866 -4.263486 4.242277 0.615997 6.706272 -40.196725 2.029953 -5.526211 0.000000 0.000000 0.000000 3.296722 -15.592260 7.378757 1.959533 5.463560 0.615310 5.817950 9.396163 2.178823 0.915208 -1.759371 0.685906 0.000000 0.000000 0.000000 5.019777 9.225566 2.192693 -2.343352 -0.260834 -1.954366 -7.540632 -1.435057 -11.870581 0.000000 0.000000 0.000000 4.724330 9.505750 1.908520 0.442296 0.108713 -13.315398 0.861707 2.218162 -1.887321 -19.828379 -25.129041 -70.096927 0.514093 -65.522578 -1.300777 0.000000 0.000000 0.000000 5.044601 9.537476 2.235647 1.018308 10.865666 18.186847 -1.664564 2.817862 -1.518302 -45.190314 56.415812 71.627798 -2.359124 40.048640 0.943607 0.000000 0.000000 0.000000 
-1.937503 98.618401 0.429642 0.000000 0.000000 0.000000 4.758290 -18.129569 8.571262 -33.244675 -7.421781 -9.694317 17.210791 -4.131667 -6.333362 17.356136 -24.686085 10.765036 -1.754292 0.051315 2.712049 0.000000 0.000000 0.000000 5.191848 -14.734268 8.566257 1.667770 -11.668671 -9.207145 29.751085 5.179026 -4.289581 2.372098 0.818689 5.669739 -37.553657 2.344501 -5.938407 0.000000 0.000000 0.000000 3.386812 -16.019951 7.052091 2.067140 5.577399 0.814925 5.767037 9.354042 2.155332 0.928819 -1.816905 0.583815 0.000000 0.000000 0.000000 5.021764 9.175546 2.160744 -2.767100 -0.190058 -1.941900 -8.001403 -1.650297 -11.663487 0.000000 0.000000 0.000000 4.692179 9.444199 1.878310 0.442276 0.076967 -13.347300 0.791384 2.322514 -1.822332 -20.292156 -25.778160 -70.206668 0.602681 -65.571681 -1.265525 0.000000 0.000000 0.000000 5.005878 9.483814 2.216303 0.994173 10.709144 18.186808 -1.705873 2.814166 -1.490047 -45.234950 56.178641 71.496248 -2.384989 41.010618 0.993759 0.000000 0.000000 0.000000 
-1.775259 98.211479 0.296661 0.000000 0.000000 0.000000 4.481426 -18.873102 8.235542 -33.521947 -7.914867 -9.380744 18.124436 -4.362266 -6.449253 16.769429 -24.939312 10.077597 -1.861016 0.512812 2.413486 0.000000 0.000000 0.000000 5.231032 -15.541812 8.211831 2.010168 -11.705687 -8.908424 28.655239 5.430468 -4.220278 1.224901 1.290633 5.031808 -36.029743 2.663618 -6.396574 0.000000 0.000000 0.000000 3.431836 -16.372095 6.758478 2.204275 5.720582 1.041550 5.709438 9.304567 2.128880 0.910477 -1.846148 0.544463 0.000000 0.000000 0.000000 4.983674 9.118412 2.132535 -3.323326 -0.164102 -1.927893 -8.588343 -1.881102 -11.409660 0.000000 0.000000 0.000000 4.630876 9.381374 1.851919 0.434697 0.086503 -13.412226 0.676195 2.426985 -1.801189 -20.660462 -26.531127 -70.275994 0.625638 -65.656512 -1.284200 0.000000 0.000000 0.000000 4.949557 9.418800 2.185637 0.954575 10.549567 18.137853 -1.664629 2.854366 -1.491806 -45.163427 55.818977 71.244494 -2.442718 42.206509 1.069824 0.000000 0.000000 0.000000 
-1.666882 97.800583 0.344017 0.000000 0.000000 0.000000 4.224336 -19.575027 7.926463 -33.676521 -8.356662 -9.014136 19.006806 -4.622935 -6.460780 16.000037 -25.318866 9.198640 -2.029555 1.064503 2.111461 0.000000 0.000000 0.000000 5.178526 -16.489648 7.902208 2.165405 -11.860553 -8.781380 27.511529 5.943639 -4.090371 0.860554 2.119073 5.168769 -35.451079 2.938335 -6.981586 0.000000 0.000000 0.000000 3.444957 -16.666990 6.478206 2.371634 5.886899 1.306489 5.653231 9.252922 2.097860 0.848081 -1.811214 0.570692 0.000000 0.000000 0.000000 4.900647 9.049845 2.113406 -3.947995 -0.191980 -1.915370 -9.243155 -2.108699 -11.153508 0.000000 0.000000 0.000000 4.534494 9.317602 1.829465 0.418961 0.152537 -13.510323 0.530277 2.465095 -1.785705 -20.909480 -27.311777 -70.311306 0.579223 -65.787412 -1.349084 0.000000 0.000000 0.000000 4.878437 9.344320 2.146075 0.894066 10.387975 18.007225 -1.597351 2.888658 -1.495016 -44.987229 55.362139 70.891975 -2.533038 43.527453 1.158447 0.000000 0.000000 0.000000 
-1.596269 97.450226 0.451550 0.000000 0.000000 0.000000 4.074470 -20.208663 7.592160 -33.712827 -8.666620 -8.554481 19.900916 -4.919778 -6.340411 15.166205 -25.804895 8.247877 -2.272469 1.704322 1.825453 0.000000 0.000000 0.000000 5.019927 -17.513431 7.626401 2.446451 -12.082162 -8.713501 26.269010 6.443986 -3.931998 0.510102 3.039743 5.578384 -34.467231 3.063872 -7.614136 0.000000 0.000000 0.000000 3.459033 -16.934482 6.182528 2.558889 6.072918 1.607216 5.581205 9.198732 2.063351 0.785564 -1.695513 0.545251 0.000000 0.000000 0.000000 4.778792 8.963677 2.105204 -4.569776 -0.272595 -1.898472 -9.919054 -2.342237 -10.936252 0.000000 0.000000 0.000000 4.407763 9.251040 1.809975 0.395071 0.262932 -13.606432 0.385743 2.451710 -1.764160 -21.136439 -28.073647 -70.347622 0.497772 -65.927035 -1.419017 0.000000 0.000000 0.000000 4.796886 9.263076 2.104373 0.814898 10.211707 17.807215 -1.536273 2.899378 -1.502812 -44.786438 54.817507 70.548635 -2.637877 44.858924 1.235679 0.000000 0.000000 0.000000 
-1.603540 97.173187 0.587635 0.000000 0.000000 0.000000 4.021208 -20.731873 7.191764 -33.749136 -8.746875 -7.963745 20.779797 -5.127807 -6.107773 14.285452 -26.317574 7.408991 -2.633327 2.434246 1.576733 0.000000 0.000000 0.000000 4.784355 -18.295328 7.264667 2.930869 -12.331156 -8.576628 24.785109 6.676555 -3.793917 -0.544291 3.896009 5.754564 -32.118773 3.017460 -8.199120 0.000000 0.000000 0.000000 3.482565 -17.084665 5.820193 2.786898 6.274365 1.956449 5.496752 9.140310 2.022276 0.750157 -1.509783 0.558657 0.000000 0.000000 0.000000 4.630021 8.860964 2.106708 -5.111218 -0.389744 -1.851923 -10.567880 -2.542826 -10.781070 0.000000 0.000000 0.000000 4.271271 9.175515 1.788780 0.363126 0.387227 -13.675104 0.218749 2.388641 -1.737098 -21.408202 -28.796474 -70.423512 0.432944 -66.017480 -1.448393 0.000000 0.000000 0.000000 4.720681 9.185284 2.058804 0.719231 10.031400 17.567904 -1.437434 2.924832 -1.515193 -44.595459 54.233539 70.284299 -2.741706 46.110894 1.294185 0.000000 0.000000 0.000000 
-1.634678 96.974541 0.724098 0.000000 0.000000 0.000000 4.120894 -21.285248 6.720588 -33.929163 -8.561323 -7.275826 21.603933 -5.147425 -5.824628 13.464344 -26.749265 6.841601 -2.998108 3.245240 1.380933 0.000000 0.000000 0.000000 4.639297 -18.767319 6.749512 3.617684 -12.479219 -8.294159 23.406901 6.592900 -3.720057 -1.940505 4.574148 5.663587 -29.699210 3.021642 -8.662653 0.000000 0.000000 0.000000 3.565611 -17.165582 5.407822 3.005170 6.479482 2.342161 5.412396 9.069940 1.970015 0.730058 -1.399411 0.581096 0.000000 0.000000 0.000000 4.477899 8.752173 2.109439 -5.521791 -0.521653 -1.768583 -11.207517 -2.661110 -10.663057 0.000000 0.000000 0.000000 4.141882 9.093324 1.760623 0.322423 0.468420 -13.690914 0.052038 2.297592 -1.711531 -21.720896 -29.436514 -70.556523 0.421603 -66.033866 -1.419487 0.000000 0.000000 0.000000 4.660525 9.112360 2.012684 0.610820 9.871454 17.335751 -1.308981 2.965888 -1.460429 -44.454720 53.715866 70.112814 -2.833593 47.216189 1.337046 0.000000 0.000000 0.000000 
